<?xml version="1.0" encoding="iso-8859-1"?>
<!-- Generator: Adobe Illustrator 16.0.0, SVG Export Plug-In . SVG Version: 6.00 Build 0)  -->
<!DOCTYPE svg PUBLIC "-//W3C//DTD SVG 1.1//EN" "http://www.w3.org/Graphics/SVG/1.1/DTD/svg11.dtd">
<svg version="1.1" id="Capa_1" xmlns="http://www.w3.org/2000/svg" xmlns:xlink="http://www.w3.org/1999/xlink" x="0px" y="0px"
	 width="357.898px" height="357.897px" viewBox="0 0 357.898 357.897" style="enable-background:new 0 0 357.898 357.897;"
	 xml:space="preserve">
<g>
	<path d="M178.952,0C80.287,0,0,80.275,0,178.943c0,98.671,80.287,178.954,178.952,178.954c98.687,0,178.946-80.271,178.946-178.954
		C357.898,80.27,277.638,0,178.952,0z M270.541,216.726c-16.411,33.362-49.684,54.091-86.836,54.091
		c-53.334,0-96.722-43.379-96.722-96.71c0-36.948,20.563-70.133,53.674-86.631c1.483-0.733,3.278-0.447,4.452,0.733
		c1.168,1.162,1.468,2.957,0.745,4.449c-6.038,12.28-9.094,25.469-9.094,39.208c0,49.071,39.911,88.991,88.985,88.991
		c13.883,0,27.214-3.122,39.607-9.301c1.501-0.745,3.278-0.463,4.449,0.727C270.972,213.435,271.273,215.229,270.541,216.726z"/>
</g>
<g>
</g>
<g>
</g>
<g>
</g>
<g>
</g>
<g>
</g>
<g>
</g>
<g>
</g>
<g>
</g>
<g>
</g>
<g>
</g>
<g>
</g>
<g>
</g>
<g>
</g>
<g>
</g>
<g>
</g>
</svg>
